<svg xmlns="http://www.w3.org/2000/svg" viewBox="0 0 512 512" width="512" height="512">
  <defs>
    <linearGradient id="f" x1="0" y1="0" x2="1" y2="1">
      <stop offset="0" stop-color="#1f2937"/>
      <stop offset="1" stop-color="#0a0f16"/>
    </linearGradient>
    <linearGradient id="m" x1="0" y1="0" x2="0" y2="1">
      <stop offset="0" stop-color="#F0D98C"/>
      <stop offset="0.5" stop-color="#C9CCD6"/>
      <stop offset="1" stop-color="#A8842C"/>
    </linearGradient>
  </defs>
  <!-- Escudo -->
  <path d="M256 28 L424 68 L424 268 Q424 400 256 484 Q88 400 88 268 L88 68 Z"
        fill="url(#f)" stroke="#C9CCD6" stroke-width="10"/>
  <path d="M256 44 L408 80 L408 268 Q408 388 256 466 Q104 388 104 268 L104 80 Z"
        fill="none" stroke="#000" stroke-opacity="0.35" stroke-width="3"/>
  <!-- Símbolo -->
  <g transform="translate(156,140) scale(2.0)" fill="url(#m)" stroke="#1a1206" stroke-width="1.6" stroke-linejoin="round" stroke-linecap="round">
    <path d="M28 30 L38 22 L50 32 L62 22 L72 30 L66 44 L70 56 L58 60 L60 74 L50 68 L40 74 L42 60 L30 56 L34 44 Z M42 42 L46 46 M58 42 L54 46"/>
  </g>
  <!-- Ornamento inferior -->
  <path d="M176 396 Q256 428 336 396" fill="none" stroke="#C9CCD6" stroke-width="4" stroke-linecap="round" opacity="0.7"/>
</svg>