<svg xmlns="http://www.w3.org/2000/svg" viewBox="0 0 512 512" width="512" height="512">
  <defs>
    <linearGradient id="f" x1="0" y1="0" x2="1" y2="1">
      <stop offset="0" stop-color="#3f2d1e"/>
      <stop offset="1" stop-color="#160d06"/>
    </linearGradient>
    <linearGradient id="m" x1="0" y1="0" x2="0" y2="1">
      <stop offset="0" stop-color="#F0D98C"/>
      <stop offset="0.5" stop-color="#D4AF37"/>
      <stop offset="1" stop-color="#A8842C"/>
    </linearGradient>
  </defs>
  <!-- Escudo -->
  <path d="M256 28 L424 68 L424 268 Q424 400 256 484 Q88 400 88 268 L88 68 Z"
        fill="url(#f)" stroke="#D4AF37" stroke-width="10"/>
  <path d="M256 44 L408 80 L408 268 Q408 388 256 466 Q104 388 104 268 L104 80 Z"
        fill="none" stroke="#000" stroke-opacity="0.35" stroke-width="3"/>
  <!-- Símbolo -->
  <g transform="translate(156,140) scale(2.0)" fill="url(#m)" stroke="#1a1206" stroke-width="1.6" stroke-linejoin="round" stroke-linecap="round">
    <circle cx="38" cy="32" r="6"/><circle cx="62" cy="32" r="6"/><path d="M32 40 Q50 30 68 40 L72 58 Q68 76 50 78 Q32 76 28 58 Z M44 58 Q50 64 56 58"/>
  </g>
  <!-- Ornamento inferior -->
  <path d="M176 396 Q256 428 336 396" fill="none" stroke="#D4AF37" stroke-width="4" stroke-linecap="round" opacity="0.7"/>
</svg>